<svg xmlns="http://www.w3.org/2000/svg" width="24" height="24" viewBox="0 0 24 24">
  <path fill="#9B9B9B" fill-rule="evenodd" d="M17.7085048,11.4024829 L7.15016345,0.844141595 C6.95909459,0.653072735 6.64086921,0.651429839 6.44560706,0.846691985 C6.25605549,1.03624356 6.24920306,1.35739477 6.44305667,1.55124838 L16.6953499,11.8035417 L6.44305667,22.0558349 C6.25198781,22.2469038 6.25034491,22.5651292 6.44560706,22.7603913 C6.63515863,22.9499429 6.95630985,22.9567953 7.15016345,22.7629417 L17.7076855,12.2054197 C17.7256635,12.1917981 17.7429228,12.1767932 17.7593156,12.1604005 C17.8288679,12.0908482 17.8738219,12.0035776 17.893288,11.9113789 C17.9293796,11.7501025 17.8853932,11.5727605 17.7593156,11.4466828 C17.7432693,11.4306366 17.7262801,11.4158997 17.7085048,11.4024829 Z" transform="matrix(0 1 1 0 .3 -.3)"/>
</svg>
