<svg xmlns="http://www.w3.org/2000/svg" width="24" height="24" viewBox="0 0 24 24">
  <path fill="#9B9B9B" fill-rule="evenodd" d="M17.4090472,11.7019404 L6.85070591,1.14359913 C6.65963705,0.952530272 6.34141167,0.950887376 6.14614952,1.14614952 C5.95659795,1.3357011 5.94974553,1.65685231 6.14359913,1.85070591 L16.3958924,12.1029992 L6.14359913,22.3552925 C5.95253027,22.5463613 5.95088738,22.8645867 6.14614952,23.0598489 C6.3357011,23.2494004 6.65685231,23.2562529 6.85070591,23.0623993 L17.4082279,12.5048772 C17.4262059,12.4912557 17.4434653,12.4762507 17.459858,12.459858 C17.5294103,12.3903057 17.5743643,12.3030351 17.5938305,12.2108364 C17.6299221,12.04956 17.5859357,11.872218 17.459858,11.7461404 C17.4438118,11.7300942 17.4268225,11.7153572 17.4090472,11.7019404 Z" transform="matrix(1 0 0 -1 0 24.205)"/>
</svg>
