<svg xmlns="http://www.w3.org/2000/svg" width="24" height="24" viewBox="0 0 24 24">
  <path fill="#9B9B9B" fill-rule="evenodd" d="M1,2.49839123 C1,2.22313735 1.21484375,2 1.49769878,2 L5.50230122,2 C5.77717266,2 6,2.23298088 6,2.50225774 L6,2.50225774 C6,2.77964703 5.78494263,3.00451548 5.50952148,3.00451548 L2,3.00451548 L2,22 L22.0012503,22 L22.0012503,3.00451548 L18.4832825,3.00451548 C18.2117468,3.00451548 17.9916235,2.77153459 17.9916235,2.50225774 L17.9916235,2.50225774 C17.9916235,2.22486845 18.2068272,2 18.4901561,2 L22.5014674,2 C22.7767994,2 23,2.22163089 23,2.49839123 L23,22.5016088 C23,22.7768626 22.7822583,23 22.4991639,23 L1.50083613,23 C1.22423198,23 1,22.7783691 1,22.5016088 L1,2.49839123 Z M2,7 L22,7 L22,8 L2,8 L2,7 Z M5,12.5 C5,12.7761424 5.21403503,13 5.50468445,13 L6.49531555,13 C6.77404508,13 7,12.7680664 7,12.5 L7,12.5 C7,12.2238576 6.78596497,12 6.49531555,12 L5.50468445,12 C5.22595492,12 5,12.2319336 5,12.5 L5,12.5 Z M5,15.5 C5,15.7761424 5.21403503,16 5.50468445,16 L6.49531555,16 C6.77404508,16 7,15.7680664 7,15.5 L7,15.5 C7,15.2238576 6.78596497,15 6.49531555,15 L5.50468445,15 C5.22595492,15 5,15.2319336 5,15.5 L5,15.5 Z M5,18.5 C5,18.7761424 5.21403503,19 5.50468445,19 L6.49531555,19 C6.77404508,19 7,18.7680664 7,18.5 L7,18.5 C7,18.2238576 6.78596497,18 6.49531555,18 L5.50468445,18 C5.22595492,18 5,18.2319336 5,18.5 L5,18.5 Z M9,12.5 C9,12.7761424 9.21403503,13 9.50468445,13 L10.4953156,13 C10.7740451,13 11,12.7680664 11,12.5 L11,12.5 C11,12.2238576 10.785965,12 10.4953156,12 L9.50468445,12 C9.22595492,12 9,12.2319336 9,12.5 L9,12.5 Z M9,15.5 C9,15.7761424 9.21403503,16 9.50468445,16 L10.4953156,16 C10.7740451,16 11,15.7680664 11,15.5 L11,15.5 C11,15.2238576 10.785965,15 10.4953156,15 L9.50468445,15 C9.22595492,15 9,15.2319336 9,15.5 L9,15.5 Z M9,18.5 C9,18.7761424 9.21403503,19 9.50468445,19 L10.4953156,19 C10.7740451,19 11,18.7680664 11,18.5 L11,18.5 C11,18.2238576 10.785965,18 10.4953156,18 L9.50468445,18 C9.22595492,18 9,18.2319336 9,18.5 L9,18.5 Z M13,12.5 C13,12.7761424 13.214035,13 13.5046844,13 L14.4953156,13 C14.7740451,13 15,12.7680664 15,12.5 L15,12.5 C15,12.2238576 14.785965,12 14.4953156,12 L13.5046844,12 C13.2259549,12 13,12.2319336 13,12.5 L13,12.5 Z M13,15.5 C13,15.7761424 13.214035,16 13.5046844,16 L14.4953156,16 C14.7740451,16 15,15.7680664 15,15.5 L15,15.5 C15,15.2238576 14.785965,15 14.4953156,15 L13.5046844,15 C13.2259549,15 13,15.2319336 13,15.5 L13,15.5 Z M13,18.5 C13,18.7761424 13.214035,19 13.5046844,19 L14.4953156,19 C14.7740451,19 15,18.7680664 15,18.5 L15,18.5 C15,18.2238576 14.785965,18 14.4953156,18 L13.5046844,18 C13.2259549,18 13,18.2319336 13,18.5 L13,18.5 Z M17,12.5 C17,12.7761424 17.214035,13 17.5046844,13 L18.4953156,13 C18.7740451,13 19,12.7680664 19,12.5 L19,12.5 C19,12.2238576 18.785965,12 18.4953156,12 L17.5046844,12 C17.2259549,12 17,12.2319336 17,12.5 L17,12.5 Z M17,15.5 C17,15.7761424 17.214035,16 17.5046844,16 L18.4953156,16 C18.7740451,16 19,15.7680664 19,15.5 L19,15.5 C19,15.2238576 18.785965,15 18.4953156,15 L17.5046844,15 C17.2259549,15 17,15.2319336 17,15.5 L17,15.5 Z M9,2.5 C9,2.22385763 9.22788048,2 9.49100518,2 L14.5089948,2 C14.7801695,2 15,2.23193359 15,2.5 L15,2.5 C15,2.77614237 14.7721195,3 14.5089948,3 L9.49100518,3 C9.21983051,3 9,2.76806641 9,2.5 L9,2.5 Z M7,1.49047852 C7,1.21959471 7.23193359,1 7.5,1 L7.5,1 C7.77614237,1 8,1.21505737 8,1.49047852 L8,4.50952148 C8,4.78040529 7.76806641,5 7.5,5 L7.5,5 C7.22385763,5 7,4.78494263 7,4.50952148 L7,1.49047852 Z M16,1.49047852 C16,1.21959471 16.2319336,1 16.5,1 L16.5,1 C16.7761424,1 17,1.21505737 17,1.49047852 L17,4.50952148 C17,4.78040529 16.7680664,5 16.5,5 L16.5,5 C16.2238576,5 16,4.78494263 16,4.50952148 L16,1.49047852 Z"/>
</svg>
