<svg xmlns="http://www.w3.org/2000/svg" width="24" height="24" viewBox="0 0 24 24">
  <g fill="#A0A6A9">
    <path d="M18,5 L18,4 L21,4 L21,16 C21,18.7614237 18.7614237,21 16,21 L3,21 L3,4 L6,4 L6,5 L4,5 L4,20 L16,20 C18.209139,20 20,18.209139 20,16 L20,5 L18,5 Z"/>
    <polygon points="7 2 7 6 8 6 8 2"/>
    <polygon points="16 2 16 6 17 6 17 2"/>
    <polygon points="7 13 9 13 9 12 7 12"/>
    <polygon points="7 16 9 16 9 15 7 15"/>
    <polygon points="11 13 13 13 13 12 11 12"/>
    <polygon points="9 5 15 5 15 4 9 4"/>
    <polygon points="11 16 13 16 13 15 11 15"/>
    <polygon points="15 16 17 16 17 15 15 15"/>
    <polygon points="15 13 17 13 17 12 15 12"/>
    <polygon points="4 9 20 9 20 8 4 8"/>
  </g>
</svg>
