<svg xmlns="http://www.w3.org/2000/svg" width="24" height="24" viewBox="0 0 24 24">
  <path fill="#9B9B9B" fill-rule="evenodd" d="M12,23 C5.92486775,23 1,18.0751322 1,12 C1,5.92486775 5.92486775,1 12,1 C18.0751322,1 23,5.92486775 23,12 C23,18.0751322 18.0751322,23 12,23 Z M12,22 C17.5228475,22 22,17.5228475 22,12 C22,6.4771525 17.5228475,2 12,2 C6.4771525,2 2,6.4771525 2,12 C2,17.5228475 6.4771525,22 12,22 Z M11.5,4.00966585 C11.5,3.72818517 11.7319336,3.5 12,3.5 C12.2761424,3.5 12.5,3.73079681 12.5,4.00043583 L12.5,11.5 L17.0023012,11.5 C17.2771727,11.5 17.5,11.7319336 17.5,12 C17.5,12.2761424 17.2721195,12.5 17.0089948,12.5 L11.9910052,12.5 C11.7198305,12.5 11.5,12.2775269 11.5,11.9903342 L11.5,4.00966585 Z"/>
</svg>
