<svg xmlns="http://www.w3.org/2000/svg" width="24" height="24" viewBox="0 0 24 24">
  <g fill="#A0A6A9">
    <path d="M12.0003309,2.5 C17.2470559,2.5 21.5,6.75337619 21.5,12.0003309 C21.5,17.2471707 17.2471707,21.5 12.0003309,21.5 C6.75337619,21.5 2.5,17.2470559 2.5,12.0003309 C2.5,6.75349107 6.75349107,2.5 12.0003309,2.5 Z M12.0003309,3.5 C7.30577582,3.5 3.5,7.30577582 3.5,12.0003309 C3.5,16.6947484 7.3056382,20.5 12.0003309,20.5 C16.694886,20.5 20.5,16.694886 20.5,12.0003309 C20.5,7.3056382 16.6947484,3.5 12.0003309,3.5 Z"/>
    <path d="M12.083934,12.7441891 C12.0839559,12.7439433 12.0839687,12.7437998 12.0817722,12.7412766 C12.0819818,12.7415593 12.0827024,12.7425302 12.083934,12.7441891 Z M14.8375602,15.4939042 L14.1304534,16.201011 L11.3463069,13.4168645 C11.3126295,13.3797071 11.3020352,13.368018 11.293575,13.3572373 C11.1070014,13.1616296 11,12.90172 11,12.6252068 L11,7 L12,7 L12,12.6252068 C12,12.6420727 12.0064059,12.6567477 12.0586921,12.7117063 C12.0649531,12.7195561 12.068834,12.7244218 12.0716568,12.7280009 L14.8375602,15.4939042 Z"/>
  </g>
</svg>
