<svg xmlns="http://www.w3.org/2000/svg" width="16" height="16" viewBox="0 0 16 16">
  <path fill="#979797" d="M8.5,7.5 L8.5,2.5 L8.5,2.5 C8.5,2.22385763 8.27614237,2 8,2 C7.72385763,2 7.5,2.22385763 7.5,2.5 L7.5,2.5 L7.5,7.5 L2.5,7.5 L2.5,7.5 C2.22385763,7.5 2,7.72385763 2,8 C2,8.27614237 2.22385763,8.5 2.5,8.5 L7.5,8.5 L7.5,13.5 C7.5,13.7761424 7.72385763,14 8,14 C8.27614237,14 8.5,13.7761424 8.5,13.5 L8.5,8.5 L13.5,8.5 C13.7761424,8.5 14,8.27614237 14,8 C14,7.72385763 13.7761424,7.5 13.5,7.5 L8.5,7.5 Z"/>
</svg>
