<svg xmlns="http://www.w3.org/2000/svg" width="24" height="24" viewBox="0 0 24 24">
  <g fill="#9B9B9B" fill-rule="evenodd">
    <path d="M13.6819805,17.1819805 L19.6819805,17.1819805 L19.6819805,17.1819805 C20.2342653,17.1819805 20.6819805,17.6296958 20.6819805,18.1819805 L20.6819805,18.1819805 L20.6819805,18.1819805 C20.6819805,18.7342653 20.2342653,19.1819805 19.6819805,19.1819805 L13.6819805,19.1819805 L13.6819805,17.1819805 Z" transform="rotate(45 17.182 18.182)"/>
    <path d="M15.9496057,15.9496057 C13.2157466,18.6834648 8.78373138,18.6834648 6.05039432,15.9496057 C3.31653523,13.2157466 3.31653523,8.78373138 6.05039432,6.05039432 C8.78373138,3.31653523 13.2162686,3.31653523 15.9496057,6.05039432 C18.6834648,8.78373138 18.6834648,13.2162686 15.9496057,15.9496057 Z M15.2425192,15.2425192 C17.5858269,12.8996588 17.5858269,9.10034118 15.2425192,6.75748084 C12.8996588,4.41417305 9.10034118,4.41417305 6.75748084,6.75748084 C4.41417305,9.10034118 4.41417305,12.8992114 6.75748084,15.2425192 C9.10034118,17.5858269 12.8992114,17.5858269 15.2425192,15.2425192 Z"/>
  </g>
</svg>
