<?xml version="1.0" encoding="UTF-8"?>
<svg width="24px" height="24px" viewBox="0 0 24 24" version="1.1" xmlns="http://www.w3.org/2000/svg" xmlns:xlink="http://www.w3.org/1999/xlink">
    <!-- Generator: Sketch 40.3 (33839) - http://www.bohemiancoding.com/sketch -->
    <title>Calendar</title>
    <desc>Created with Sketch.</desc>
    <defs></defs>
    <g id="zhiren_icon" stroke="none" stroke-width="1" fill="none" fill-rule="evenodd">
        <g id="Main" transform="translate(1.000000, 1.000000)" fill="#9B9B9B">
            <path d="M0,1.49839123 C0,1.22313735 0.21484375,1 0.497698784,1 L4.50230122,1 C4.77717266,1 5,1.23298088 5,1.50225774 L5,1.50225774 C5,1.77964703 4.78494263,2.00451548 4.50952148,2.00451548 L1,2.00451548 L1,21 L21.0012503,21 L21.0012503,2.00451548 L17.4832825,2.00451548 C17.2117468,2.00451548 16.9916235,1.77153459 16.9916235,1.50225774 L16.9916235,1.50225774 C16.9916235,1.22486845 17.2068272,1 17.4901561,1 L21.5014674,1 C21.7767994,1 22,1.22163089 22,1.49839123 L22,21.5016088 C22,21.7768626 21.7822583,22 21.4991639,22 L0.500836134,22 C0.224231975,22 0,21.7783691 0,21.5016088 L0,1.49839123 Z M1,6 L21,6 L21,7 L1,7 L1,6 Z M4,11.5 C4,11.7761424 4.21403503,12 4.50468445,12 L5.49531555,12 C5.77404508,12 6,11.7680664 6,11.5 L6,11.5 C6,11.2238576 5.78596497,11 5.49531555,11 L4.50468445,11 C4.22595492,11 4,11.2319336 4,11.5 L4,11.5 Z M4,14.5 C4,14.7761424 4.21403503,15 4.50468445,15 L5.49531555,15 C5.77404508,15 6,14.7680664 6,14.5 L6,14.5 C6,14.2238576 5.78596497,14 5.49531555,14 L4.50468445,14 C4.22595492,14 4,14.2319336 4,14.5 L4,14.5 Z M4,17.5 C4,17.7761424 4.21403503,18 4.50468445,18 L5.49531555,18 C5.77404508,18 6,17.7680664 6,17.5 L6,17.5 C6,17.2238576 5.78596497,17 5.49531555,17 L4.50468445,17 C4.22595492,17 4,17.2319336 4,17.5 L4,17.5 Z M8,11.5 C8,11.7761424 8.21403503,12 8.50468445,12 L9.49531555,12 C9.77404508,12 10,11.7680664 10,11.5 L10,11.5 C10,11.2238576 9.78596497,11 9.49531555,11 L8.50468445,11 C8.22595492,11 8,11.2319336 8,11.5 L8,11.5 Z M8,14.5 C8,14.7761424 8.21403503,15 8.50468445,15 L9.49531555,15 C9.77404508,15 10,14.7680664 10,14.5 L10,14.5 C10,14.2238576 9.78596497,14 9.49531555,14 L8.50468445,14 C8.22595492,14 8,14.2319336 8,14.5 L8,14.5 Z M8,17.5 C8,17.7761424 8.21403503,18 8.50468445,18 L9.49531555,18 C9.77404508,18 10,17.7680664 10,17.5 L10,17.5 C10,17.2238576 9.78596497,17 9.49531555,17 L8.50468445,17 C8.22595492,17 8,17.2319336 8,17.5 L8,17.5 Z M12,11.5 C12,11.7761424 12.214035,12 12.5046844,12 L13.4953156,12 C13.7740451,12 14,11.7680664 14,11.5 L14,11.5 C14,11.2238576 13.785965,11 13.4953156,11 L12.5046844,11 C12.2259549,11 12,11.2319336 12,11.5 L12,11.5 Z M12,14.5 C12,14.7761424 12.214035,15 12.5046844,15 L13.4953156,15 C13.7740451,15 14,14.7680664 14,14.5 L14,14.5 C14,14.2238576 13.785965,14 13.4953156,14 L12.5046844,14 C12.2259549,14 12,14.2319336 12,14.5 L12,14.5 Z M12,17.5 C12,17.7761424 12.214035,18 12.5046844,18 L13.4953156,18 C13.7740451,18 14,17.7680664 14,17.5 L14,17.5 C14,17.2238576 13.785965,17 13.4953156,17 L12.5046844,17 C12.2259549,17 12,17.2319336 12,17.5 L12,17.5 Z M16,11.5 C16,11.7761424 16.214035,12 16.5046844,12 L17.4953156,12 C17.7740451,12 18,11.7680664 18,11.5 L18,11.5 C18,11.2238576 17.785965,11 17.4953156,11 L16.5046844,11 C16.2259549,11 16,11.2319336 16,11.5 L16,11.5 Z M16,14.5 C16,14.7761424 16.214035,15 16.5046844,15 L17.4953156,15 C17.7740451,15 18,14.7680664 18,14.5 L18,14.5 C18,14.2238576 17.785965,14 17.4953156,14 L16.5046844,14 C16.2259549,14 16,14.2319336 16,14.5 L16,14.5 Z M8,1.5 C8,1.22385763 8.22788048,1 8.49100518,1 L13.5089948,1 C13.7801695,1 14,1.23193359 14,1.5 L14,1.5 C14,1.77614237 13.7721195,2 13.5089948,2 L8.49100518,2 C8.21983051,2 8,1.76806641 8,1.5 L8,1.5 Z M6,0.490478516 C6,0.219594711 6.23193359,0 6.5,0 L6.5,0 C6.77614237,0 7,0.215057373 7,0.490478516 L7,3.50952148 C7,3.78040529 6.76806641,4 6.5,4 L6.5,4 C6.22385763,4 6,3.78494263 6,3.50952148 L6,0.490478516 Z M15,0.490478516 C15,0.219594711 15.2319336,0 15.5,0 L15.5,0 C15.7761424,0 16,0.215057373 16,0.490478516 L16,3.50952148 C16,3.78040529 15.7680664,4 15.5,4 L15.5,4 C15.2238576,4 15,3.78494263 15,3.50952148 L15,0.490478516 Z" id="Calendar"></path>
        </g>
    </g>
</svg>