<svg xmlns="http://www.w3.org/2000/svg" width="24" height="24" viewBox="0 0 24 24">
  <path fill="#9B9B9B" fill-rule="evenodd" d="M16.6262932,16.0904129 L22.8402784,21.8382529 C23.0438968,22.0265968 23.0482516,22.3387618 22.8607428,22.5248371 L22.5286336,22.8544073 C22.3363174,23.0452534 22.0152795,23.0472113 21.8117305,22.8589237 L15.5610109,17.0768647 C14.0302194,18.2814309 12.0990251,19 10,19 C5.02943725,19 1,14.9705627 1,10 C1,5.02943725 5.02943725,1 10,1 C14.9705627,1 19,5.02943725 19,10 C19,12.3489613 18.1001192,14.4877442 16.6262932,16.0904129 Z M10,18 C14.418278,18 18,14.418278 18,10 C18,5.581722 14.418278,2 10,2 C5.581722,2 2,5.581722 2,10 C2,14.418278 5.581722,18 10,18 Z"/>
</svg>
