<?xml version="1.0" encoding="UTF-8"?>
<svg width="24px" height="24px" viewBox="0 0 24 24" version="1.1" xmlns="http://www.w3.org/2000/svg" xmlns:xlink="http://www.w3.org/1999/xlink">
    <!-- Generator: Sketch 40.3 (33839) - http://www.bohemiancoding.com/sketch -->
    <title>Success</title>
    <desc>Created with Sketch.</desc>
    <defs></defs>
    <g id="zhiren_icon" stroke="none" stroke-width="1" fill="none" fill-rule="evenodd">
        <g id="Main" transform="translate(1.000000, 1.000000)" fill="#9B9B9B">
            <path d="M11,22 C17.0751322,22 22,17.0751322 22,11 C22,4.92486775 17.0751322,0 11,0 C4.92486775,0 0,4.92486775 0,11 C0,17.0751322 4.92486775,22 11,22 Z M11,21 C16.5228475,21 21,16.5228475 21,11 C21,5.4771525 16.5228475,1 11,1 C5.4771525,1 1,5.4771525 1,11 C1,16.5228475 5.4771525,21 11,21 Z M17.0734953,8.10417138 C17.2692381,7.90842856 17.2639172,7.58574584 17.0743656,7.39619427 C16.8791035,7.20093212 16.5598374,7.20361571 16.3604356,7.40301751 L9.64974442,14.1137087 L5.75429682,10.2182611 C5.56254737,10.0265116 5.24310191,10.0350698 5.05355034,10.2246214 C4.85828819,10.4198835 4.8646839,10.7428617 5.05597058,10.9341484 L9.29377079,15.1719486 C9.49036959,15.3685474 9.81220265,15.365464 10.0041681,15.1734985 L17.0734953,8.10417138 Z" id="Success"></path>
        </g>
    </g>
</svg>