<svg xmlns="http://www.w3.org/2000/svg" width="24" height="24" viewBox="0 0 24 24">
  <path fill="#9B9B9B" fill-rule="evenodd" d="M12,23 C5.92486775,23 1,18.0751322 1,12 C1,5.92486775 5.92486775,1 12,1 C18.0751322,1 23,5.92486775 23,12 C23,18.0751322 18.0751322,23 12,23 Z M12,22 C17.5228475,22 22,17.5228475 22,12 C22,6.4771525 17.5228475,2 12,2 C6.4771525,2 2,6.4771525 2,12 C2,17.5228475 6.4771525,22 12,22 Z M18.0734953,9.10417138 L11.0041681,16.1734985 C10.8122026,16.365464 10.4903696,16.3685474 10.2937708,16.1719486 L6.05597058,11.9341484 C5.8646839,11.7428617 5.85828819,11.4198835 6.05355034,11.2246214 C6.24310191,11.0350698 6.56254737,11.0265116 6.75429682,11.2182611 L10.6497444,15.1137087 L17.3604356,8.40301751 C17.5598374,8.20361571 17.8791035,8.20093212 18.0743656,8.39619427 C18.2639172,8.58574584 18.2692381,8.90842856 18.0734953,9.10417138 Z"/>
</svg>
